<?xml version="1.0" encoding="UTF-8"?>
<svg xmlns="http://www.w3.org/2000/svg" baseProfile="full" version="1.1" viewBox="0 0 240 240">
	<defs>
		<symbol id="line">
			<linearGradient id="g0" x1="0%" x2="100%" y1="0%" y2="100%">
				<stop offset="0%" stop-color="#7bcd00"/>
				<stop offset="80%" stop-color="#ADFF2F"/>
			</linearGradient>
			<rect fill="url(#g0)" height="100%" stroke="black" stroke-width="1" width="100%"/>
		</symbol>
		<symbol id="square">
			<linearGradient id="g1" x1="0%" x2="100%" y1="0%" y2="100%">
				<stop offset="0%" stop-color="#be4e4e"/>
				<stop offset="80%" stop-color="#F08080"/>
			</linearGradient>
			<rect fill="url(#g1)" height="100%" stroke="black" stroke-width="1" width="100%"/>
		</symbol>
		<symbol id="are">
			<linearGradient id="g2" x1="0%" x2="100%" y1="0%" y2="100%">
				<stop offset="0%" stop-color="#beb45a"/>
				<stop offset="80%" stop-color="#F0E68C"/>
			</linearGradient>
			<rect fill="url(#g2)" height="100%" stroke="black" stroke-width="1" width="100%"/>
		</symbol>
		<symbol id="ell">
			<linearGradient id="g3" x1="0%" x2="100%" y1="0%" y2="100%">
				<stop offset="0%" stop-color="#ac8655"/>
				<stop offset="80%" stop-color="#DEB887"/>
			</linearGradient>
			<rect fill="url(#g3)" height="100%" stroke="black" stroke-width="1" width="100%"/>
		</symbol>
		<symbol id="ess">
			<linearGradient id="g4" x1="0%" x2="100%" y1="0%" y2="100%">
				<stop offset="0%" stop-color="#3263bb"/>
				<stop offset="80%" stop-color="#6495ED"/>
			</linearGradient>
			<rect fill="url(#g4)" height="100%" stroke="black" stroke-width="1" width="100%"/>
		</symbol>
		<symbol id="zee">
			<linearGradient id="g5" x1="0%" x2="100%" y1="0%" y2="100%">
				<stop offset="0%" stop-color="#cd848f"/>
				<stop offset="80%" stop-color="#FFB6C1"/>
			</linearGradient>
			<rect fill="url(#g5)" height="100%" stroke="black" stroke-width="1" width="100%"/>
		</symbol>
		<symbol id="tee">
			<linearGradient id="g6" x1="0%" x2="100%" y1="0%" y2="100%">
				<stop offset="0%" stop-color="#4dcda2"/>
				<stop offset="80%" stop-color="#7FFFD4"/>
			</linearGradient>
			<rect fill="url(#g6)" height="100%" stroke="black" stroke-width="1" width="100%"/>
		</symbol>
		<symbol id="flashOn">
			<linearGradient id="g7" x1="0%" x2="100%" y1="0%" y2="100%">
				<stop offset="0%" stop-color="#0"/>
				<stop offset="80%" stop-color="#000000"/>
			</linearGradient>
			<rect fill="url(#g7)" height="100%" stroke="black" stroke-width="1" width="100%"/>
		</symbol>
		<symbol id="flashOff">
			<linearGradient id="g8" x1="0%" x2="100%" y1="0%" y2="100%">
				<stop offset="0%" stop-color="#cdcdcd"/>
				<stop offset="80%" stop-color="#FFFFFF"/>
			</linearGradient>
			<rect fill="url(#g8)" height="100%" stroke="black" stroke-width="1" width="100%"/>
		</symbol>
	</defs>
	<use height="60" xlink:href="#ell" width="60" x="0" y="0"/>
	<use height="60" xlink:href="#ell" width="60" x="60" y="0"/>
	<use height="60" xlink:href="#ell" width="60" x="120" y="0"/>
	<use height="60" xlink:href="#ell" width="60" x="0" y="60"/>
	<use height="60" xlink:href="#square" width="60" x="60" y="60"/>
	<use height="60" xlink:href="#square" width="60" x="120" y="60"/>
	<use height="60" xlink:href="#square" width="60" x="60" y="120"/>
	<use height="60" xlink:href="#square" width="60" x="120" y="120"/>
	<use height="60" xlink:href="#line" width="60" x="180" y="0"/>
	<use height="60" xlink:href="#line" width="60" x="180" y="60"/>
	<use height="60" xlink:href="#line" width="60" x="180" y="120"/>
	<use height="60" xlink:href="#line" width="60" x="180" y="180"/>
	<use height="60" xlink:href="#are" width="60" x="0" y="120"/>
	<use height="60" xlink:href="#are" width="60" x="0" y="180"/>
	<use height="60" xlink:href="#are" width="60" x="60" y="180"/>
	<use height="60" xlink:href="#are" width="60" x="120" y="180"/>
</svg>
